<svg width="166" height="186" viewBox="0 0 166 186" fill="none" xmlns="http://www.w3.org/2000/svg">
<g filter="url(#filter0_d_3196_100182)">
<g clip-path="url(#clip0_3196_100182)">
<rect width="166" height="186" rx="24" fill="#E0D4FE"/>
<path d="M25.0813 121.166V118.966L31.5618 108.727H33.3963V111.859H32.2777L27.9151 118.772V118.892H36.9609V121.166H25.0813ZM32.3672 124V120.495L32.397 119.511V108.727H35.0071V124H32.3672ZM44.6148 124.209C43.5409 124.209 42.5863 124.025 41.7511 123.657C40.9209 123.289 40.2646 122.777 39.7824 122.121C39.3001 121.464 39.0441 120.706 39.0143 119.846H41.8182C41.8431 120.259 41.9798 120.619 42.2284 120.928C42.477 121.231 42.8076 121.467 43.2202 121.636C43.6329 121.805 44.0952 121.89 44.6073 121.89C45.1542 121.89 45.6389 121.795 46.0615 121.606C46.4841 121.412 46.8147 121.144 47.0533 120.801C47.292 120.458 47.4088 120.062 47.4038 119.615C47.4088 119.153 47.2895 118.745 47.0459 118.392C46.8023 118.039 46.4493 117.763 45.9869 117.564C45.5295 117.365 44.9777 117.266 44.3314 117.266H42.9816V115.133H44.3314C44.8633 115.133 45.3282 115.041 45.7259 114.857C46.1286 114.673 46.4443 114.415 46.673 114.082C46.9017 113.744 47.0135 113.353 47.0086 112.911C47.0135 112.478 46.9166 112.103 46.7177 111.785C46.5238 111.462 46.2479 111.211 45.89 111.032C45.537 110.853 45.1219 110.763 44.6446 110.763C44.1773 110.763 43.7447 110.848 43.347 111.017C42.9493 111.186 42.6286 111.427 42.385 111.74C42.1414 112.048 42.0121 112.416 41.9972 112.844H39.3349C39.3548 111.989 39.6009 111.238 40.0732 110.592C40.5505 109.94 41.1868 109.433 41.9823 109.07C42.7777 108.702 43.6701 108.518 44.6595 108.518C45.6787 108.518 46.5636 108.71 47.3143 109.093C48.07 109.471 48.6542 109.98 49.0668 110.621C49.4795 111.263 49.6858 111.971 49.6858 112.747C49.6907 113.607 49.4372 114.328 48.9251 114.909C48.418 115.491 47.7518 115.871 46.9265 116.05V116.17C48.0004 116.319 48.8232 116.717 49.3949 117.363C49.9716 118.004 50.2575 118.802 50.2525 119.757C50.2525 120.612 50.0089 121.377 49.5217 122.054C49.0395 122.725 48.3733 123.252 47.5231 123.635C46.678 124.017 45.7085 124.209 44.6148 124.209ZM52.3264 121.166V118.966L58.8068 108.727H60.6413V111.859H59.5227L55.1602 118.772V118.892H64.206V121.166H52.3264ZM59.6122 124V120.495L59.6421 119.511V108.727H62.2521V124H59.6122Z" fill="#111C2D"/>
<rect x="70.5" y="107" width="40" height="19" rx="9.5" stroke="#111C2D" stroke-opacity="0.1"/>
<path d="M80.7599 116.001V117.271H76.831V116.001H80.7599ZM85.7951 112.273V121H84.2142V113.811H84.163L82.1218 115.115V113.666L84.2909 112.273H85.7951ZM87.891 121V119.858L90.9209 116.888C91.2106 116.595 91.4521 116.335 91.6453 116.108C91.8385 115.881 91.9834 115.661 92.08 115.447C92.1765 115.234 92.2248 115.007 92.2248 114.766C92.2248 114.49 92.1623 114.254 92.0373 114.058C91.9123 113.859 91.7405 113.706 91.5217 113.598C91.303 113.49 91.0544 113.436 90.776 113.436C90.489 113.436 90.2376 113.496 90.0217 113.615C89.8058 113.732 89.6382 113.898 89.5189 114.114C89.4024 114.33 89.3442 114.587 89.3442 114.885H87.8399C87.8399 114.331 87.9663 113.849 88.2192 113.44C88.472 113.031 88.82 112.714 89.2632 112.49C89.7092 112.266 90.2206 112.153 90.7973 112.153C91.3825 112.153 91.8967 112.263 92.3399 112.482C92.7831 112.7 93.1268 113 93.3712 113.381C93.6183 113.761 93.7419 114.196 93.7419 114.685C93.7419 115.011 93.6794 115.332 93.5544 115.648C93.4294 115.963 93.2092 116.312 92.8939 116.696C92.5814 117.08 92.1425 117.544 91.5771 118.089L90.0729 119.619V119.679H93.874V121H87.891ZM99.8904 119.364V118.903C99.8904 118.565 99.9614 118.254 100.103 117.97C100.248 117.686 100.459 117.457 100.734 117.284C101.01 117.111 101.343 117.024 101.736 117.024C102.139 117.024 102.477 117.111 102.75 117.284C103.022 117.455 103.228 117.682 103.368 117.966C103.51 118.25 103.581 118.562 103.581 118.903V119.364C103.581 119.702 103.51 120.013 103.368 120.297C103.226 120.581 103.017 120.81 102.741 120.983C102.468 121.156 102.133 121.243 101.736 121.243C101.338 121.243 101.001 121.156 100.726 120.983C100.45 120.81 100.241 120.581 100.099 120.297C99.96 120.013 99.8904 119.702 99.8904 119.364ZM101.003 118.903V119.364C101.003 119.588 101.057 119.794 101.165 119.982C101.272 120.169 101.463 120.263 101.736 120.263C102.011 120.263 102.2 120.17 102.302 119.986C102.407 119.798 102.46 119.591 102.46 119.364V118.903C102.46 118.676 102.41 118.469 102.311 118.281C102.211 118.091 102.02 117.996 101.736 117.996C101.468 117.996 101.28 118.091 101.169 118.281C101.058 118.469 101.003 118.676 101.003 118.903ZM95.4543 114.369V113.909C95.4543 113.568 95.5267 113.256 95.6716 112.972C95.8165 112.687 96.0267 112.46 96.3023 112.29C96.5779 112.116 96.9117 112.03 97.3037 112.03C97.7043 112.03 98.0409 112.116 98.3137 112.29C98.5892 112.46 98.7966 112.687 98.9358 112.972C99.075 113.256 99.1446 113.568 99.1446 113.909V114.369C99.1446 114.71 99.0736 115.023 98.9315 115.307C98.7923 115.588 98.585 115.814 98.3094 115.984C98.0338 116.155 97.6986 116.24 97.3037 116.24C96.9031 116.24 96.5651 116.155 96.2895 115.984C96.0168 115.814 95.8094 115.587 95.6673 115.303C95.5253 115.018 95.4543 114.707 95.4543 114.369ZM96.575 113.909V114.369C96.575 114.597 96.6276 114.804 96.7327 114.991C96.8406 115.176 97.031 115.268 97.3037 115.268C97.5764 115.268 97.7639 115.176 97.8662 114.991C97.9713 114.804 98.0239 114.597 98.0239 114.369V113.909C98.0239 113.682 97.9742 113.474 97.8747 113.287C97.7753 113.097 97.585 113.001 97.3037 113.001C97.0338 113.001 96.8449 113.097 96.7369 113.287C96.629 113.477 96.575 113.685 96.575 113.909ZM95.9401 121L101.94 112.273H103.005L97.0054 121H95.9401Z" fill="#111C2D" fill-opacity="0.4"/>
<path opacity="0.8" d="M25.233 150V139.818H28.6733C29.4688 139.818 30.1217 139.954 30.6321 140.226C31.1425 140.494 31.5204 140.864 31.7656 141.335C32.0109 141.805 32.1335 142.34 32.1335 142.94C32.1335 143.54 32.0109 144.072 31.7656 144.536C31.5204 145 31.1442 145.365 30.6371 145.63C30.13 145.892 29.482 146.023 28.6932 146.023H25.9091V144.909H28.6534C29.197 144.909 29.6345 144.83 29.9659 144.67C30.3007 144.511 30.5426 144.286 30.6918 143.994C30.8442 143.699 30.9205 143.348 30.9205 142.94C30.9205 142.533 30.8442 142.176 30.6918 141.871C30.5393 141.567 30.2957 141.331 29.9609 141.165C29.6262 140.996 29.1837 140.912 28.6335 140.912H26.4659V150H25.233ZM30.0256 145.426L32.5312 150H31.0994L28.6335 145.426H30.0256ZM37.1486 150.159C36.4128 150.159 35.7781 149.997 35.2445 149.672C34.7142 149.344 34.3049 148.886 34.0165 148.3C33.7315 147.71 33.589 147.024 33.589 146.241C33.589 145.459 33.7315 144.77 34.0165 144.173C34.3049 143.573 34.7059 143.106 35.2196 142.771C35.7367 142.433 36.3399 142.264 37.0293 142.264C37.427 142.264 37.8198 142.33 38.2076 142.463C38.5953 142.596 38.9483 142.811 39.2665 143.109C39.5847 143.404 39.8382 143.795 40.0272 144.283C40.2161 144.77 40.3105 145.37 40.3105 146.082V146.58H34.4242V145.565H39.1174C39.1174 145.134 39.0312 144.75 38.8588 144.412C38.6898 144.074 38.4479 143.807 38.133 143.612C37.8214 143.416 37.4535 143.318 37.0293 143.318C36.562 143.318 36.1576 143.434 35.8162 143.666C35.4782 143.895 35.218 144.193 35.0357 144.561C34.8534 144.929 34.7623 145.323 34.7623 145.744V146.42C34.7623 146.997 34.8617 147.486 35.0605 147.887C35.2627 148.285 35.5428 148.588 35.9007 148.797C36.2587 149.002 36.6747 149.105 37.1486 149.105C37.4569 149.105 37.7353 149.062 37.9838 148.976C38.2357 148.886 38.4528 148.754 38.6351 148.578C38.8174 148.399 38.9583 148.177 39.0577 147.912L40.1912 148.23C40.0719 148.615 39.8714 148.953 39.5897 149.244C39.3079 149.533 38.9599 149.758 38.5456 149.92C38.1313 150.08 37.6657 150.159 37.1486 150.159ZM45.4959 142.364V143.358H41.3794V142.364H45.4959ZM42.6124 150V141.31C42.6124 140.872 42.7151 140.508 42.9206 140.216C43.1261 139.924 43.3929 139.705 43.7211 139.56C44.0492 139.414 44.3955 139.341 44.7601 139.341C45.0485 139.341 45.2838 139.364 45.4661 139.411C45.6484 139.457 45.7843 139.5 45.8738 139.54L45.5357 140.554C45.476 140.534 45.3932 140.509 45.2871 140.479C45.1844 140.45 45.0485 140.435 44.8794 140.435C44.4917 140.435 44.2116 140.532 44.0392 140.728C43.8702 140.924 43.7857 141.21 43.7857 141.588V150H42.6124ZM51.9528 146.878V142.364H53.1261V150H51.9528V148.707H51.8732C51.6942 149.095 51.4158 149.425 51.038 149.697C50.6602 149.965 50.1829 150.099 49.6062 150.099C49.1289 150.099 48.7047 149.995 48.3335 149.786C47.9622 149.574 47.6706 149.256 47.4585 148.832C47.2463 148.404 47.1403 147.866 47.1403 147.216V142.364H48.3136V147.136C48.3136 147.693 48.4693 148.137 48.7809 148.469C49.0958 148.8 49.4968 148.966 49.984 148.966C50.2757 148.966 50.5723 148.891 50.8739 148.742C51.1789 148.593 51.4341 148.364 51.6396 148.056C51.8484 147.748 51.9528 147.355 51.9528 146.878ZM56.4483 145.406V150H55.275V142.364H56.4086V143.557H56.508C56.687 143.169 56.9587 142.857 57.3233 142.622C57.6879 142.384 58.1586 142.264 58.7353 142.264C59.2523 142.264 59.7047 142.37 60.0925 142.582C60.4803 142.791 60.7819 143.109 60.9973 143.537C61.2128 143.961 61.3205 144.498 61.3205 145.148V150H60.1472V145.227C60.1472 144.627 59.9914 144.16 59.6799 143.825C59.3683 143.487 58.9408 143.318 58.3972 143.318C58.0227 143.318 57.6879 143.399 57.3929 143.562C57.1013 143.724 56.8709 143.961 56.7019 144.273C56.5328 144.584 56.4483 144.962 56.4483 145.406ZM66.348 150.159C65.7116 150.159 65.1499 149.998 64.6626 149.677C64.1754 149.352 63.7943 148.895 63.5192 148.305C63.2441 147.711 63.1065 147.01 63.1065 146.202C63.1065 145.4 63.2441 144.704 63.5192 144.114C63.7943 143.524 64.1771 143.068 64.6676 142.746C65.1581 142.425 65.7249 142.264 66.3679 142.264C66.8651 142.264 67.2578 142.347 67.5462 142.513C67.8378 142.675 68.0599 142.861 68.2124 143.07C68.3681 143.275 68.4891 143.444 68.5753 143.577H68.6747V139.818H69.848V150H68.7145V148.827H68.5753C68.4891 148.966 68.3665 149.142 68.2074 149.354C68.0483 149.562 67.8213 149.75 67.5263 149.915C67.2313 150.078 66.8385 150.159 66.348 150.159ZM66.5071 149.105C66.9777 149.105 67.3755 148.982 67.7003 148.737C68.0251 148.489 68.272 148.146 68.4411 147.708C68.6101 147.267 68.6946 146.759 68.6946 146.182C68.6946 145.612 68.6117 145.113 68.446 144.685C68.2803 144.254 68.035 143.92 67.7102 143.681C67.3854 143.439 66.9844 143.318 66.5071 143.318C66.0099 143.318 65.5956 143.446 65.2642 143.701C64.9361 143.953 64.6892 144.296 64.5234 144.73C64.361 145.161 64.2798 145.645 64.2798 146.182C64.2798 146.725 64.3627 147.219 64.5284 147.663C64.6974 148.104 64.946 148.455 65.2741 148.717C65.6056 148.976 66.0166 149.105 66.5071 149.105ZM77.5689 144.074L76.5149 144.372C76.4486 144.196 76.3509 144.026 76.2216 143.86C76.0956 143.691 75.9233 143.552 75.7045 143.442C75.4858 143.333 75.2057 143.278 74.8643 143.278C74.397 143.278 74.0076 143.386 73.696 143.602C73.3878 143.814 73.2337 144.084 73.2337 144.412C73.2337 144.704 73.3397 144.934 73.5518 145.103C73.764 145.272 74.0954 145.413 74.5462 145.526L75.6797 145.804C76.3625 145.97 76.8712 146.223 77.206 146.565C77.5407 146.903 77.7081 147.339 77.7081 147.872C77.7081 148.31 77.5821 148.701 77.3303 149.045C77.0817 149.39 76.7337 149.662 76.2862 149.861C75.8388 150.06 75.3184 150.159 74.7251 150.159C73.9463 150.159 73.3016 149.99 72.7912 149.652C72.2808 149.314 71.9576 148.82 71.8217 148.17L72.9354 147.892C73.0414 148.303 73.242 148.611 73.5369 148.817C73.8352 149.022 74.2247 149.125 74.7053 149.125C75.2521 149.125 75.6863 149.009 76.0078 148.777C76.3326 148.542 76.495 148.26 76.495 147.932C76.495 147.667 76.4022 147.445 76.2166 147.266C76.031 147.083 75.746 146.947 75.3615 146.858L74.0888 146.56C73.3894 146.394 72.8757 146.137 72.5476 145.789C72.2228 145.438 72.0604 144.999 72.0604 144.472C72.0604 144.041 72.1813 143.66 72.4233 143.328C72.6686 142.997 73.0017 142.737 73.4226 142.548C73.8468 142.359 74.3274 142.264 74.8643 142.264C75.62 142.264 76.2133 142.43 76.6442 142.761C77.0784 143.093 77.3866 143.53 77.5689 144.074Z" fill="#111C2D" fill-opacity="0.6"/>
<g clip-path="url(#clip1_3196_100182)">
<path d="M40 27V39H52" stroke="white" stroke-width="2" stroke-linecap="round" stroke-linejoin="round"/>
<path d="M40 51C46.6274 51 52 45.6274 52 39C52 32.3726 46.6274 27 40 27C33.3726 27 28 32.3726 28 39C28 45.6274 33.3726 51 40 51Z" stroke="white" stroke-width="2" stroke-linecap="round" stroke-linejoin="round"/>
</g>
<rect x="24" y="25" width="56" height="40" rx="20" fill="#8965E6"/>
<path d="M51.9989 46.875C51.483 46.875 51.0417 46.6913 50.675 46.3239C50.3083 45.9565 50.125 45.5148 50.125 44.9989C50.125 44.483 50.3087 44.0417 50.6761 43.675C51.0435 43.3083 51.4852 43.125 52.0011 43.125C52.517 43.125 52.9583 43.3087 53.325 43.6761C53.6917 44.0435 53.875 44.4852 53.875 45.0011C53.875 45.517 53.6913 45.9583 53.3239 46.325C52.9565 46.6917 52.5148 46.875 51.9989 46.875ZM52 54C49.5 54 47.375 53.1208 45.625 51.3625C43.875 49.6042 43 47.475 43 44.975H44.5C44.5 47.0583 45.2292 48.8333 46.6875 50.3C48.1458 51.7667 49.9167 52.5 52 52.5C54.0893 52.5 55.8616 51.7723 57.317 50.317C58.7723 48.8616 59.5 47.0893 59.5 45C59.5 42.9107 58.7723 41.1384 57.317 39.683C55.8616 38.2277 54.0893 37.5 52 37.5C50.85 37.5 49.775 37.7542 48.775 38.2625C47.775 38.7708 46.9 39.4583 46.15 40.325H48.75V41.825H43.55V36.625H45.05V39.275C45.9333 38.2417 46.9768 37.4375 48.1804 36.8625C49.384 36.2875 50.6572 36 52 36C53.25 36 54.4208 36.2375 55.5125 36.7125C56.6042 37.1875 57.5542 37.8292 58.3625 38.6375C59.1708 39.4458 59.8125 40.3958 60.2875 41.4875C60.7625 42.5792 61 43.75 61 45C61 46.25 60.7625 47.4208 60.2875 48.5125C59.8125 49.6042 59.1708 50.5542 58.3625 51.3625C57.5542 52.1708 56.6042 52.8125 55.5125 53.2875C54.4208 53.7625 53.25 54 52 54Z" fill="white"/>
<path d="M116.971 -44.9966C125.572 -46.7863 134.013 -47.857 142.798 -47.0879C151.584 -46.3188 160.714 -43.7099 167.505 -38.4581C174.295 -33.2064 178.693 -25.3491 180.162 -17.1669C181.631 -8.98468 180.181 -0.395303 177.501 8.75232C174.821 17.9 170.963 27.6431 163.159 34.1C155.347 40.4746 143.598 43.6452 133.752 41.0538C123.864 38.5075 115.93 30.2364 109.357 23.4721C102.784 16.7078 97.6136 11.4053 91.3268 5.07405C84.9881 -1.29443 77.6275 -8.69951 77.3426 -16.1076C77.0576 -23.5158 83.9001 -30.8897 91.7281 -35.8125C99.556 -40.7352 108.369 -43.2068 116.971 -44.9966Z" fill="#111C2D" fill-opacity="0.05"/>
</g>
</g>
<defs>
<filter id="filter0_d_3196_100182" x="0" y="0" width="196.3" height="218.3" filterUnits="userSpaceOnUse" color-interpolation-filters="sRGB">
<feFlood flood-opacity="0" result="BackgroundImageFix"/>
<feColorMatrix in="SourceAlpha" type="matrix" values="0 0 0 0 0 0 0 0 0 0 0 0 0 0 0 0 0 0 127 0" result="hardAlpha"/>
<feMorphology radius="7" operator="erode" in="SourceAlpha" result="effect1_dropShadow_3196_100182"/>
<feOffset dx="16" dy="18"/>
<feGaussianBlur stdDeviation="10.65"/>
<feComposite in2="hardAlpha" operator="out"/>
<feColorMatrix type="matrix" values="0 0 0 0 0.389697 0 0 0 0 0.204618 0 0 0 0 0.691667 0 0 0 0.1 0"/>
<feBlend mode="normal" in2="BackgroundImageFix" result="effect1_dropShadow_3196_100182"/>
<feBlend mode="normal" in="SourceGraphic" in2="effect1_dropShadow_3196_100182" result="shape"/>
</filter>
<clipPath id="clip0_3196_100182">
<rect width="166" height="186" rx="24" fill="white"/>
</clipPath>
<clipPath id="clip1_3196_100182">
<rect width="32" height="32" fill="white" transform="translate(24 23)"/>
</clipPath>
</defs>
</svg>
