<svg width="166" height="186" viewBox="0 0 166 186" fill="none" xmlns="http://www.w3.org/2000/svg">
<g filter="url(#filter0_d_8_29)">
<g clip-path="url(#clip0_8_29)">
<rect width="166" height="186" rx="24" fill="#BAFAF2"/>
<path d="M30.2791 125.909V106.818H31.5021V125.909H30.2791ZM33.8065 112.926C33.7369 112.275 33.4435 111.767 32.9265 111.404C32.4144 111.042 31.7482 110.86 30.9279 110.86C30.3512 110.86 29.8565 110.947 29.4439 111.121C29.0313 111.295 28.7156 111.531 28.4968 111.83C28.2781 112.128 28.1662 112.468 28.1612 112.851C28.1612 113.169 28.2333 113.445 28.3775 113.679C28.5266 113.913 28.728 114.112 28.9815 114.276C29.2351 114.435 29.516 114.569 29.8242 114.678C30.1325 114.788 30.4432 114.88 30.7564 114.954L32.1882 115.312C32.7649 115.446 33.3192 115.628 33.8512 115.857C34.3881 116.085 34.8679 116.374 35.2905 116.722C35.718 117.07 36.0561 117.49 36.3047 117.982C36.5533 118.474 36.6776 119.051 36.6776 119.712C36.6776 120.607 36.4489 121.395 35.9915 122.076C35.5341 122.752 34.8729 123.282 34.0078 123.664C33.1477 124.042 32.1062 124.231 30.8832 124.231C29.695 124.231 28.6634 124.047 27.7884 123.679C26.9183 123.311 26.2372 122.775 25.745 122.069C25.2578 121.363 24.9943 120.502 24.9545 119.488H27.6765C27.7163 120.02 27.8803 120.463 28.1687 120.816C28.457 121.169 28.8324 121.432 29.2947 121.606C29.7621 121.78 30.2841 121.867 30.8608 121.867C31.4624 121.867 31.9893 121.778 32.4418 121.599C32.8991 121.415 33.2571 121.161 33.5156 120.838C33.7741 120.51 33.9059 120.127 33.9109 119.69C33.9059 119.292 33.7891 118.964 33.5604 118.705C33.3317 118.442 33.011 118.223 32.5984 118.049C32.1907 117.87 31.7134 117.711 31.1665 117.572L29.429 117.124C28.1712 116.801 27.1768 116.311 26.446 115.655C25.7202 114.994 25.3572 114.116 25.3572 113.023C25.3572 112.123 25.6009 111.335 26.0881 110.659C26.5803 109.983 27.2489 109.458 28.0941 109.085C28.9393 108.707 29.8963 108.518 30.9652 108.518C32.049 108.518 32.9986 108.707 33.8139 109.085C34.6342 109.458 35.2781 109.978 35.7454 110.644C36.2127 111.305 36.4538 112.066 36.4688 112.926H33.8065ZM38.7849 124V122.001L44.0871 116.804C44.5942 116.292 45.0168 115.837 45.3549 115.439C45.693 115.041 45.9465 114.656 46.1156 114.283C46.2846 113.91 46.3691 113.512 46.3691 113.09C46.3691 112.608 46.2597 112.195 46.041 111.852C45.8222 111.504 45.5214 111.235 45.1386 111.047C44.7558 110.858 44.3208 110.763 43.8336 110.763C43.3315 110.763 42.8915 110.868 42.5136 111.076C42.1358 111.28 41.8425 111.571 41.6337 111.949C41.4298 112.327 41.3279 112.777 41.3279 113.299H38.6955C38.6955 112.329 38.9167 111.487 39.3592 110.771C39.8016 110.055 40.4106 109.5 41.1862 109.108C41.9668 108.715 42.8616 108.518 43.8709 108.518C44.895 108.518 45.7949 108.71 46.5705 109.093C47.346 109.475 47.9476 110 48.3751 110.666C48.8077 111.332 49.0239 112.093 49.0239 112.948C49.0239 113.52 48.9146 114.082 48.6958 114.634C48.4771 115.185 48.0918 115.797 47.5399 116.468C46.993 117.139 46.2249 117.952 45.2356 118.907L42.6031 121.584V121.688H49.2551V124H38.7849ZM51.0139 121.166V118.966L57.4943 108.727H59.3288V111.859H58.2102L53.8477 118.772V118.892H62.8935V121.166H51.0139ZM58.2997 124V120.495L58.3296 119.511V108.727H60.9396V124H58.2997ZM70.3758 124.209C69.3815 124.209 68.4915 124.022 67.706 123.65C66.9205 123.272 66.2966 122.755 65.8342 122.098C65.3768 121.442 65.1332 120.691 65.1034 119.846H67.7881C67.8378 120.473 68.1087 120.985 68.6009 121.382C69.0931 121.775 69.6847 121.972 70.3758 121.972C70.9177 121.972 71.3999 121.847 71.8225 121.599C72.2451 121.35 72.5782 121.005 72.8218 120.562C73.0654 120.12 73.1847 119.615 73.1797 119.048C73.1847 118.472 73.0629 117.96 72.8143 117.512C72.5658 117.065 72.2252 116.714 71.7927 116.461C71.3601 116.202 70.863 116.073 70.3012 116.073C69.8438 116.068 69.3939 116.152 68.9514 116.326C68.5089 116.5 68.1584 116.729 67.8999 117.012L65.4017 116.602L66.1996 108.727H75.059V111.039H68.4891L68.0491 115.088H68.1386C68.4219 114.755 68.8221 114.479 69.3392 114.261C69.8562 114.037 70.423 113.925 71.0395 113.925C71.9642 113.925 72.7895 114.144 73.5153 114.581C74.2412 115.014 74.8129 115.61 75.2305 116.371C75.6481 117.132 75.8569 118.002 75.8569 118.981C75.8569 119.99 75.6233 120.89 75.156 121.681C74.6936 122.466 74.0498 123.085 73.2245 123.538C72.4042 123.985 71.4546 124.209 70.3758 124.209ZM80.6359 120.406L80.6285 117.147H81.061L85.1775 112.545H88.332L83.2684 118.183H82.7091L80.6359 120.406ZM78.175 124V108.727H80.8746V124H78.175ZM85.3639 124L81.6352 118.787L83.4548 116.886L88.593 124H85.3639Z" fill="#111C2D"/>
<rect x="93.5" y="107" width="37" height="19" rx="9.5" stroke="#111C2D" stroke-opacity="0.1"/>
<path d="M102.366 119.602V113.705H103.705V119.602H102.366ZM100.087 117.322V115.984H105.984V117.322H100.087ZM110.832 121.119C110.199 121.119 109.636 121.013 109.145 120.8C108.656 120.587 108.272 120.295 107.994 119.926C107.718 119.554 107.582 119.132 107.585 118.661C107.582 118.294 107.662 117.957 107.824 117.651C107.985 117.344 108.204 117.088 108.48 116.884C108.758 116.676 109.068 116.544 109.409 116.487V116.428C108.96 116.328 108.596 116.099 108.318 115.741C108.042 115.381 107.906 114.964 107.909 114.493C107.906 114.044 108.031 113.643 108.284 113.291C108.537 112.939 108.883 112.662 109.324 112.46C109.764 112.256 110.267 112.153 110.832 112.153C111.392 112.153 111.89 112.256 112.328 112.46C112.768 112.662 113.115 112.939 113.368 113.291C113.623 113.643 113.751 114.044 113.751 114.493C113.751 114.964 113.61 115.381 113.329 115.741C113.051 116.099 112.691 116.328 112.251 116.428V116.487C112.592 116.544 112.899 116.676 113.172 116.884C113.447 117.088 113.666 117.344 113.828 117.651C113.993 117.957 114.075 118.294 114.075 118.661C114.075 119.132 113.936 119.554 113.657 119.926C113.379 120.295 112.995 120.587 112.507 120.8C112.021 121.013 111.463 121.119 110.832 121.119ZM110.832 119.901C111.159 119.901 111.443 119.845 111.684 119.734C111.926 119.621 112.113 119.462 112.247 119.257C112.38 119.053 112.449 118.817 112.451 118.55C112.449 118.271 112.376 118.026 112.234 117.812C112.095 117.597 111.903 117.428 111.659 117.305C111.417 117.183 111.142 117.122 110.832 117.122C110.52 117.122 110.241 117.183 109.997 117.305C109.753 117.428 109.559 117.597 109.417 117.812C109.278 118.026 109.21 118.271 109.213 118.55C109.21 118.817 109.275 119.053 109.409 119.257C109.542 119.459 109.73 119.616 109.971 119.73C110.216 119.844 110.503 119.901 110.832 119.901ZM110.832 115.925C111.099 115.925 111.335 115.871 111.539 115.763C111.747 115.655 111.91 115.504 112.03 115.311C112.149 115.118 112.21 114.895 112.213 114.642C112.21 114.392 112.15 114.173 112.034 113.986C111.917 113.795 111.755 113.649 111.548 113.547C111.341 113.442 111.102 113.389 110.832 113.389C110.556 113.389 110.314 113.442 110.103 113.547C109.896 113.649 109.734 113.795 109.618 113.986C109.504 114.173 109.449 114.392 109.451 114.642C109.449 114.895 109.505 115.118 109.622 115.311C109.741 115.501 109.905 115.652 110.112 115.763C110.322 115.871 110.562 115.925 110.832 115.925ZM120.022 119.364V118.903C120.022 118.565 120.093 118.254 120.235 117.97C120.38 117.686 120.59 117.457 120.866 117.284C121.141 117.111 121.475 117.024 121.867 117.024C122.271 117.024 122.609 117.111 122.881 117.284C123.154 117.455 123.36 117.682 123.499 117.966C123.641 118.25 123.712 118.562 123.712 118.903V119.364C123.712 119.702 123.641 120.013 123.499 120.297C123.357 120.581 123.148 120.81 122.873 120.983C122.6 121.156 122.265 121.243 121.867 121.243C121.47 121.243 121.133 121.156 120.857 120.983C120.582 120.81 120.373 120.581 120.231 120.297C120.092 120.013 120.022 119.702 120.022 119.364ZM121.134 118.903V119.364C121.134 119.588 121.188 119.794 121.296 119.982C121.404 120.169 121.595 120.263 121.867 120.263C122.143 120.263 122.332 120.17 122.434 119.986C122.539 119.798 122.592 119.591 122.592 119.364V118.903C122.592 118.676 122.542 118.469 122.443 118.281C122.343 118.091 122.151 117.996 121.867 117.996C121.6 117.996 121.411 118.091 121.3 118.281C121.19 118.469 121.134 118.676 121.134 118.903ZM115.586 114.369V113.909C115.586 113.568 115.658 113.256 115.803 112.972C115.948 112.687 116.158 112.46 116.434 112.29C116.71 112.116 117.043 112.03 117.435 112.03C117.836 112.03 118.173 112.116 118.445 112.29C118.721 112.46 118.928 112.687 119.068 112.972C119.207 113.256 119.276 113.568 119.276 113.909V114.369C119.276 114.71 119.205 115.023 119.063 115.307C118.924 115.588 118.717 115.814 118.441 115.984C118.166 116.155 117.83 116.24 117.435 116.24C117.035 116.24 116.697 116.155 116.421 115.984C116.148 115.814 115.941 115.587 115.799 115.303C115.657 115.018 115.586 114.707 115.586 114.369ZM116.707 113.909V114.369C116.707 114.597 116.759 114.804 116.864 114.991C116.972 115.176 117.163 115.268 117.435 115.268C117.708 115.268 117.896 115.176 117.998 114.991C118.103 114.804 118.156 114.597 118.156 114.369V113.909C118.156 113.682 118.106 113.474 118.006 113.287C117.907 113.097 117.717 113.001 117.435 113.001C117.166 113.001 116.977 113.097 116.869 113.287C116.761 113.477 116.707 113.685 116.707 113.909ZM116.072 121L122.072 112.273H123.137L117.137 121H116.072Z" fill="#111C2D" fill-opacity="0.4"/>
<path opacity="0.8" d="M25.233 150V139.818H31.3778V140.912H26.4659V144.352H31.0597V145.446H26.4659V148.906H31.4574V150H25.233ZM35.6882 150.179C35.2043 150.179 34.7652 150.088 34.3707 149.906C33.9763 149.72 33.6631 149.453 33.4311 149.105C33.1991 148.754 33.0831 148.33 33.0831 147.832C33.0831 147.395 33.1693 147.04 33.3416 146.768C33.514 146.493 33.7443 146.278 34.0327 146.122C34.321 145.966 34.6392 145.85 34.9872 145.774C35.3385 145.695 35.6915 145.632 36.0462 145.585C36.5102 145.526 36.8864 145.481 37.1747 145.451C37.4664 145.418 37.6785 145.363 37.8111 145.287C37.947 145.211 38.0149 145.078 38.0149 144.889V144.849C38.0149 144.359 37.8807 143.978 37.6122 143.706C37.3471 143.434 36.9444 143.298 36.4041 143.298C35.844 143.298 35.4048 143.421 35.0866 143.666C34.7685 143.911 34.5447 144.173 34.4155 144.452L33.3018 144.054C33.5007 143.59 33.7659 143.229 34.0973 142.97C34.4321 142.708 34.7966 142.526 35.1911 142.423C35.5888 142.317 35.9799 142.264 36.3643 142.264C36.6096 142.264 36.8913 142.294 37.2095 142.354C37.531 142.41 37.8409 142.528 38.1392 142.707C38.4408 142.886 38.6911 143.156 38.8899 143.517C39.0888 143.878 39.1882 144.362 39.1882 144.969V150H38.0149V148.966H37.9553C37.8757 149.132 37.7431 149.309 37.5575 149.498C37.3719 149.687 37.125 149.848 36.8168 149.98C36.5085 150.113 36.1323 150.179 35.6882 150.179ZM35.8672 149.125C36.3312 149.125 36.7223 149.034 37.0405 148.852C37.362 148.669 37.6039 148.434 37.7663 148.146C37.9321 147.857 38.0149 147.554 38.0149 147.236V146.162C37.9652 146.222 37.8558 146.276 37.6868 146.326C37.5211 146.372 37.3288 146.414 37.1101 146.45C36.8946 146.483 36.6842 146.513 36.4787 146.54C36.2765 146.563 36.1125 146.583 35.9865 146.599C35.6816 146.639 35.3965 146.704 35.1314 146.793C34.8696 146.879 34.6574 147.01 34.495 147.186C34.3359 147.358 34.2564 147.594 34.2564 147.892C34.2564 148.3 34.4072 148.608 34.7088 148.817C35.0137 149.022 35.3999 149.125 35.8672 149.125ZM41.3297 150V142.364H42.4632V143.517H42.5428C42.682 143.139 42.9339 142.833 43.2985 142.597C43.6631 142.362 44.074 142.244 44.5314 142.244C44.6176 142.244 44.7253 142.246 44.8546 142.249C44.9838 142.253 45.0816 142.258 45.1479 142.264V143.457C45.1081 143.447 45.017 143.433 44.8745 143.413C44.7353 143.389 44.5878 143.378 44.432 143.378C44.0608 143.378 43.7293 143.456 43.4377 143.612C43.1493 143.764 42.9206 143.976 42.7516 144.248C42.5859 144.516 42.503 144.823 42.503 145.168V150H41.3297ZM47.712 145.406V150H46.5387V142.364H47.6722V143.557H47.7717C47.9506 143.169 48.2224 142.857 48.587 142.622C48.9516 142.384 49.4222 142.264 49.9989 142.264C50.516 142.264 50.9684 142.37 51.3562 142.582C51.744 142.791 52.0456 143.109 52.261 143.537C52.4764 143.961 52.5842 144.498 52.5842 145.148V150H51.4109V145.227C51.4109 144.627 51.2551 144.16 50.9435 143.825C50.632 143.487 50.2044 143.318 49.6609 143.318C49.2863 143.318 48.9516 143.399 48.6566 143.562C48.3649 143.724 48.1346 143.961 47.9656 144.273C47.7965 144.584 47.712 144.962 47.712 145.406ZM54.7282 150V142.364H55.9015V150H54.7282ZM55.3248 141.091C55.0961 141.091 54.8989 141.013 54.7331 140.857C54.5707 140.701 54.4895 140.514 54.4895 140.295C54.4895 140.077 54.5707 139.889 54.7331 139.734C54.8989 139.578 55.0961 139.5 55.3248 139.5C55.5534 139.5 55.749 139.578 55.9114 139.734C56.0771 139.889 56.16 140.077 56.16 140.295C56.16 140.514 56.0771 140.701 55.9114 140.857C55.749 141.013 55.5534 141.091 55.3248 141.091ZM59.2237 145.406V150H58.0504V142.364H59.1839V143.557H59.2834C59.4624 143.169 59.7341 142.857 60.0987 142.622C60.4633 142.384 60.9339 142.264 61.5107 142.264C62.0277 142.264 62.4801 142.37 62.8679 142.582C63.2557 142.791 63.5573 143.109 63.7727 143.537C63.9882 143.961 64.0959 144.498 64.0959 145.148V150H62.9226V145.227C62.9226 144.627 62.7668 144.16 62.4553 143.825C62.1437 143.487 61.7161 143.318 61.1726 143.318C60.7981 143.318 60.4633 143.399 60.1683 143.562C59.8767 143.724 59.6463 143.961 59.4773 144.273C59.3082 144.584 59.2237 144.962 59.2237 145.406ZM69.3223 153.023C68.7555 153.023 68.2683 152.95 67.8606 152.804C67.4529 152.661 67.1132 152.473 66.8414 152.237C66.573 152.005 66.3592 151.757 66.2001 151.491L67.1348 150.835C67.2408 150.974 67.3751 151.134 67.5375 151.312C67.6999 151.495 67.9219 151.652 68.2037 151.785C68.4887 151.921 68.8616 151.989 69.3223 151.989C69.9387 151.989 70.4475 151.839 70.8485 151.541C71.2496 151.243 71.4501 150.776 71.4501 150.139V148.588H71.3507C71.2645 148.727 71.1419 148.9 70.9828 149.105C70.827 149.307 70.6016 149.488 70.3066 149.647C70.015 149.803 69.6206 149.881 69.1234 149.881C68.5069 149.881 67.9534 149.735 67.4629 149.443C66.9757 149.152 66.5895 148.727 66.3045 148.17C66.0228 147.614 65.8819 146.937 65.8819 146.142C65.8819 145.36 66.0195 144.679 66.2946 144.099C66.5697 143.515 66.9525 143.065 67.443 142.746C67.9335 142.425 68.5003 142.264 69.1433 142.264C69.6404 142.264 70.0349 142.347 70.3265 142.513C70.6215 142.675 70.8469 142.861 71.0027 143.07C71.1618 143.275 71.2844 143.444 71.3706 143.577H71.4899V142.364H72.6234V150.219C72.6234 150.875 72.4743 151.409 72.176 151.82C71.881 152.234 71.4833 152.537 70.9828 152.729C70.4856 152.925 69.9321 153.023 69.3223 153.023ZM69.2825 148.827C69.7531 148.827 70.1509 148.719 70.4757 148.504C70.8005 148.288 71.0474 147.978 71.2164 147.574C71.3855 147.17 71.47 146.686 71.47 146.122C71.47 145.572 71.3871 145.086 71.2214 144.665C71.0557 144.245 70.8104 143.915 70.4856 143.676C70.1608 143.437 69.7598 143.318 69.2825 143.318C68.7853 143.318 68.371 143.444 68.0396 143.696C67.7115 143.948 67.4645 144.286 67.2988 144.71C67.1364 145.134 67.0552 145.605 67.0552 146.122C67.0552 146.652 67.1381 147.121 67.3038 147.529C67.4728 147.933 67.7214 148.252 68.0495 148.484C68.381 148.712 68.792 148.827 69.2825 148.827ZM80.1802 144.074L79.1262 144.372C79.06 144.196 78.9622 144.026 78.8329 143.86C78.707 143.691 78.5346 143.552 78.3159 143.442C78.0971 143.333 77.8171 143.278 77.4757 143.278C77.0083 143.278 76.6189 143.386 76.3074 143.602C75.9991 143.814 75.845 144.084 75.845 144.412C75.845 144.704 75.9511 144.934 76.1632 145.103C76.3753 145.272 76.7067 145.413 77.1575 145.526L78.291 145.804C78.9738 145.97 79.4825 146.223 79.8173 146.565C80.152 146.903 80.3194 147.339 80.3194 147.872C80.3194 148.31 80.1935 148.701 79.9416 149.045C79.693 149.39 79.345 149.662 78.8975 149.861C78.4501 150.06 77.9297 150.159 77.3365 150.159C76.5576 150.159 75.9129 149.99 75.4025 149.652C74.8921 149.314 74.569 148.82 74.4331 148.17L75.5467 147.892C75.6528 148.303 75.8533 148.611 76.1483 148.817C76.4466 149.022 76.836 149.125 77.3166 149.125C77.8635 149.125 78.2976 149.009 78.6191 148.777C78.944 148.542 79.1064 148.26 79.1064 147.932C79.1064 147.667 79.0136 147.445 78.8279 147.266C78.6423 147.083 78.3573 146.947 77.9728 146.858L76.7001 146.56C76.0008 146.394 75.487 146.137 75.1589 145.789C74.8341 145.438 74.6717 144.999 74.6717 144.472C74.6717 144.041 74.7927 143.66 75.0346 143.328C75.2799 142.997 75.613 142.737 76.0339 142.548C76.4582 142.359 76.9387 142.264 77.4757 142.264C78.2314 142.264 78.8246 142.43 79.2555 142.761C79.6897 143.093 79.9979 143.53 80.1802 144.074Z" fill="#111C2D" fill-opacity="0.6"/>
<g clip-path="url(#clip1_8_29)">
<path d="M40 27V39H52" stroke="white" stroke-width="2" stroke-linecap="round" stroke-linejoin="round"/>
<path d="M40 51C46.6274 51 52 45.6274 52 39C52 32.3726 46.6274 27 40 27C33.3726 27 28 32.3726 28 39C28 45.6274 33.3726 51 40 51Z" stroke="white" stroke-width="2" stroke-linecap="round" stroke-linejoin="round"/>
</g>
<rect x="24" y="25" width="56" height="40" rx="20" fill="#00CEB6"/>
<path d="M51.275 52.175H52.65V50.875C53.6667 50.7583 54.4583 50.4458 55.025 49.9375C55.5917 49.4292 55.875 48.75 55.875 47.9C55.875 47.05 55.6333 46.3583 55.15 45.825C54.6667 45.2917 53.85 44.7833 52.7 44.3C51.7333 43.9 51.0333 43.5417 50.6 43.225C50.1667 42.9083 49.95 42.4833 49.95 41.95C49.95 41.4333 50.1375 41.025 50.5125 40.725C50.8875 40.425 51.4 40.275 52.05 40.275C52.55 40.275 52.9833 40.3917 53.35 40.625C53.7167 40.8583 54.025 41.2083 54.275 41.675L55.475 41.1C55.1917 40.5167 54.8167 40.0583 54.35 39.725C53.8833 39.3917 53.3333 39.1917 52.7 39.125V37.85H51.325V39.125C50.475 39.2417 49.8042 39.5542 49.3125 40.0625C48.8208 40.5708 48.575 41.2 48.575 41.95C48.575 42.7667 48.825 43.4167 49.325 43.9C49.825 44.3833 50.575 44.8333 51.575 45.25C52.6917 45.7167 53.4583 46.1375 53.875 46.5125C54.2917 46.8875 54.5 47.35 54.5 47.9C54.5 48.4333 54.2792 48.8625 53.8375 49.1875C53.3958 49.5125 52.8417 49.675 52.175 49.675C51.525 49.675 50.9458 49.4917 50.4375 49.125C49.9292 48.7583 49.575 48.2583 49.375 47.625L48.1 48.05C48.45 48.8167 48.8792 49.4208 49.3875 49.8625C49.8958 50.3042 50.525 50.625 51.275 50.825V52.175ZM52 55C50.6333 55 49.3417 54.7375 48.125 54.2125C46.9083 53.6875 45.8458 52.9708 44.9375 52.0625C44.0292 51.1542 43.3125 50.0917 42.7875 48.875C42.2625 47.6583 42 46.3667 42 45C42 43.6167 42.2625 42.3167 42.7875 41.1C43.3125 39.8833 44.0292 38.825 44.9375 37.925C45.8458 37.025 46.9083 36.3125 48.125 35.7875C49.3417 35.2625 50.6333 35 52 35C53.3833 35 54.6833 35.2625 55.9 35.7875C57.1167 36.3125 58.175 37.025 59.075 37.925C59.975 38.825 60.6875 39.8833 61.2125 41.1C61.7375 42.3167 62 43.6167 62 45C62 46.3667 61.7375 47.6583 61.2125 48.875C60.6875 50.0917 59.975 51.1542 59.075 52.0625C58.175 52.9708 57.1167 53.6875 55.9 54.2125C54.6833 54.7375 53.3833 55 52 55ZM52 53.5C54.3667 53.5 56.375 52.6708 58.025 51.0125C59.675 49.3542 60.5 47.35 60.5 45C60.5 42.6333 59.675 40.625 58.025 38.975C56.375 37.325 54.3667 36.5 52 36.5C49.65 36.5 47.6458 37.325 45.9875 38.975C44.3292 40.625 43.5 42.6333 43.5 45C43.5 47.35 44.3292 49.3542 45.9875 51.0125C47.6458 52.6708 49.65 53.5 52 53.5Z" fill="white"/>
<path d="M85.5932 -30.1522C89.0842 -40.4187 96.4984 -49.7587 106.284 -56.4415C116.139 -63.1391 128.365 -67.1795 139.897 -66.5042C151.411 -65.8886 162.23 -60.5573 170.931 -54.4506C179.684 -48.4184 186.267 -41.5364 192.177 -33.9382C198.019 -26.3251 203.206 -17.9361 203.229 -9.44441C203.251 -0.952681 198.248 7.61203 192.504 16.6541C186.76 25.6961 180.43 35.2454 171.269 37.7347C162.161 40.1494 150.273 35.4296 138.073 33.1871C125.872 30.9445 113.41 31.1046 104.139 26.326C94.9545 21.5921 88.9778 11.9792 85.7045 1.59103C82.5001 -8.81199 82.1022 -19.8857 85.5932 -30.1522Z" fill="#111C2D" fill-opacity="0.05"/>
</g>
</g>
<defs>
<filter id="filter0_d_8_29" x="0" y="0" width="196.3" height="218.3" filterUnits="userSpaceOnUse" color-interpolation-filters="sRGB">
<feFlood flood-opacity="0" result="BackgroundImageFix"/>
<feColorMatrix in="SourceAlpha" type="matrix" values="0 0 0 0 0 0 0 0 0 0 0 0 0 0 0 0 0 0 127 0" result="hardAlpha"/>
<feMorphology radius="7" operator="erode" in="SourceAlpha" result="effect1_dropShadow_8_29"/>
<feOffset dx="16" dy="18"/>
<feGaussianBlur stdDeviation="10.65"/>
<feComposite in2="hardAlpha" operator="out"/>
<feColorMatrix type="matrix" values="0 0 0 0 0.0367361 0 0 0 0 0.383333 0 0 0 0 0.320946 0 0 0 0.15 0"/>
<feBlend mode="normal" in2="BackgroundImageFix" result="effect1_dropShadow_8_29"/>
<feBlend mode="normal" in="SourceGraphic" in2="effect1_dropShadow_8_29" result="shape"/>
</filter>
<clipPath id="clip0_8_29">
<rect width="166" height="186" rx="24" fill="white"/>
</clipPath>
<clipPath id="clip1_8_29">
<rect width="32" height="32" fill="white" transform="translate(24 23)"/>
</clipPath>
</defs>
</svg>
