<svg width="34" height="24" viewBox="0 0 34 24" fill="none" xmlns="http://www.w3.org/2000/svg">
<path d="M2.8858 16.9318L2.71172 17.2305C1.79287 18.8069 2.32599 20.8297 3.90246 21.7486C5.47893 22.6675 7.50178 22.1343 8.42062 20.5579L8.59471 20.2592C9.51351 18.6827 8.98046 16.6598 7.40397 15.7411C5.8275 14.8223 3.80465 15.3553 2.8858 16.9318Z" fill="#00A1FF"/>
<path opacity="0.25" d="M6.54671 6.75328L14.5137 20.5525C15.426 22.1328 17.4466 22.6742 19.0269 21.7618C20.6072 20.8495 21.1486 18.8289 20.2363 17.2486L12.2693 3.44938C11.3569 1.86914 9.3363 1.32772 7.75602 2.24007C6.17579 3.15241 5.63436 5.17306 6.54671 6.75328Z" fill="#00A1FF"/>
<path opacity="0.25" d="M17.6131 6.75328L25.5801 20.5525C26.4924 22.1328 28.5131 22.6742 30.0933 21.7618C31.6735 20.8495 32.215 18.8289 31.3026 17.2486L23.3356 3.44938C22.4233 1.86914 20.4027 1.32772 18.8224 2.24007C17.2422 3.15241 16.7008 5.17306 17.6131 6.75328Z" fill="#00A1FF"/>
<path d="M6.54671 6.75231L11.186 14.7879C12.0984 16.3681 14.1191 16.9096 15.6993 15.9972C17.2795 15.0849 17.8209 13.0643 16.9086 11.484L12.2693 3.44841C11.3569 1.86817 9.33629 1.32674 7.75602 2.23909C6.17578 3.15144 5.63436 5.17208 6.54671 6.75231Z" fill="#00A1FF"/>
<path d="M17.6131 6.75329L22.3125 14.8928C23.2248 16.473 25.2454 17.0145 26.8257 16.1021C28.4059 15.1898 28.9474 13.1692 28.035 11.5889L23.3357 3.44938C22.4233 1.86915 20.4026 1.32771 18.8225 2.24007C17.2422 3.15242 16.7008 5.17305 17.6131 6.75329Z" fill="#00A1FF"/>
</svg>
