<svg width="14" height="25" viewBox="0 0 14 25" fill="none" xmlns="http://www.w3.org/2000/svg">
<g clip-path="url(#clip0_391_373)">
<mask id="mask0_391_373" style="mask-type:luminance" maskUnits="userSpaceOnUse" x="0" y="0" width="14" height="25">
<path d="M13.2768 0.5H0V24.5H13.2768V0.5Z" fill="white"/>
</mask>
<g mask="url(#mask0_391_373)">
<path d="M8.525 0.570312L8.51557 5.85078L8.50614 11.1312L8.07239 9.90542V9.90228L7.50977 21.6576C8.06296 23.2166 8.35841 24.0495 8.36156 24.0527C8.3647 24.0558 8.67901 24.0747 9.05933 24.0935C10.2097 24.1501 11.6367 24.2727 12.7211 24.4079C12.9725 24.4393 13.1863 24.455 13.202 24.4424C13.2177 24.4299 13.2208 19.0551 13.2177 12.4954L13.2083 0.570312H8.525Z" fill="#ADB0BB" fill-opacity="0.4"/>
<path d="M0.0546875 0.554901V12.4925C0.0546875 19.0585 0.0609738 24.4364 0.0704032 24.4459C0.0798326 24.4553 0.485297 24.4144 0.975626 24.361C1.46595 24.3076 2.14173 24.2384 2.47804 24.2101C2.99352 24.1661 4.53994 24.0687 4.71596 24.0655C4.76939 24.0655 4.77253 23.7984 4.77882 19.0082L4.78825 13.9509L5.16228 15.007C5.21886 15.1705 5.23772 15.2208 5.29429 15.3811L5.85691 3.62889C5.73748 3.29257 5.80034 3.46859 5.66518 3.08512C5.20629 1.78701 4.81654 0.690055 4.80082 0.639765L4.76939 0.551758H0.0546875V0.554901Z" fill="#ADB0BB" fill-opacity="0.4"/>
<path d="M8.525 0.570312L8.51557 5.85078L8.50614 11.1312L8.07239 9.90542V9.90228L7.50977 21.6576C8.06296 23.2166 8.35841 24.0495 8.36156 24.0527C8.3647 24.0558 8.67901 24.0747 9.05933 24.0935C10.2097 24.1501 11.6367 24.2727 12.7211 24.4079C12.9725 24.4393 13.1863 24.455 13.202 24.4424C13.2177 24.4299 13.2208 19.0551 13.2177 12.4954L13.2083 0.570312H8.525Z" fill="#ADB0BB" fill-opacity="0.4"/>
<path d="M0.0546875 0.554901V12.4925C0.0546875 19.0585 0.0609738 24.4364 0.0704032 24.4459C0.0798326 24.4553 0.485297 24.4144 0.975626 24.361C1.46595 24.3076 2.14173 24.2384 2.47804 24.2101C2.99352 24.1661 4.53994 24.0687 4.71596 24.0655C4.76939 24.0655 4.77253 23.7984 4.77882 19.0082L4.78825 13.9509L5.16228 15.007C5.21886 15.1705 5.23772 15.2208 5.29429 15.3811L5.85691 3.62889C5.73748 3.29257 5.80034 3.46859 5.66518 3.08512C5.20629 1.78701 4.81654 0.690055 4.80082 0.639765L4.76939 0.551758H0.0546875V0.554901Z" fill="#ADB0BB" fill-opacity="0.4"/>
<path d="M0.0546875 0.554901V7.25606L4.77568 19.7783C4.77568 19.4923 4.77568 19.3351 4.77882 19.0082L4.78825 13.9509L5.16228 15.007C7.23675 20.891 8.35257 24.0467 8.35885 24.053C8.36199 24.0561 8.67631 24.075 9.05663 24.0938C10.207 24.1504 11.634 24.273 12.7184 24.4082C12.9698 24.4396 13.1836 24.4553 13.1993 24.4427C13.2087 24.4333 13.215 21.7994 13.215 18.081L8.51915 4.57183L8.51601 5.85108L8.50658 11.1315L8.07283 9.90573C7.6485 8.70819 7.36562 7.90669 5.6589 3.08512C5.2 1.78701 4.81025 0.690055 4.79454 0.639765L4.7631 0.551758H0.0546875V0.554901Z" fill="url(#paint0_radial_391_373)"/>
<path d="M0.0546875 0.554901L4.78511 13.9604V13.9541L5.15914 15.0102C7.23675 20.891 8.35256 24.0467 8.35885 24.053C8.36199 24.0561 8.67631 24.075 9.05663 24.0938C10.207 24.1504 11.634 24.273 12.7184 24.4082C12.9667 24.4396 13.1836 24.4553 13.1961 24.4427L8.50658 11.1284V11.1315L8.07282 9.90573C7.6485 8.70819 7.36562 7.90669 5.6589 3.08512C5.2 1.78701 4.81025 0.690055 4.79453 0.639765L4.7631 0.551758H2.4089L0.0546875 0.554901Z" fill="#ADB0BB"/>
</g>
</g>
<defs>
<radialGradient id="paint0_radial_391_373" cx="0" cy="0" r="1" gradientUnits="userSpaceOnUse" gradientTransform="translate(6.41451 12.3608) rotate(-19.1007) scale(0.867345 31.772)">
<stop/>
<stop offset="1" stop-opacity="0"/>
</radialGradient>
<clipPath id="clip0_391_373">
<rect width="14" height="25" fill="white"/>
</clipPath>
</defs>
</svg>
