<svg width="28" height="25" viewBox="0 0 28 25" fill="none" xmlns="http://www.w3.org/2000/svg">
<g clip-path="url(#clip0_2104_5191)">
<path d="M13.9987 15.0393C15.4013 15.0393 16.5383 13.9023 16.5383 12.4996C16.5383 11.097 15.4013 9.95996 13.9987 9.95996C12.596 9.95996 11.459 11.097 11.459 12.4996C11.459 13.9023 12.596 15.0393 13.9987 15.0393Z" fill="#00A1FF"/>
<path d="M13.9992 18.2137C21.0123 18.2137 26.6976 15.6554 26.6976 12.4994C26.6976 9.34353 21.0123 6.78516 13.9992 6.78516C6.98605 6.78516 1.30078 9.34353 1.30078 12.4994C1.30078 15.6554 6.98605 18.2137 13.9992 18.2137Z" stroke="#00A1FF"/>
<path d="M9.05138 15.3569C12.558 21.4305 17.6162 25.0749 20.3493 23.4969C23.0824 21.919 22.4554 15.7162 18.9488 9.64266C15.4422 3.5691 10.384 -0.0753058 7.65089 1.50265C4.91779 3.08061 5.54481 9.28338 9.05138 15.3569Z" stroke="#00A1FF"/>
<path d="M9.05024 9.64224C5.54366 15.7158 4.91664 21.9186 7.64975 23.4965C10.3828 25.0745 15.4411 21.4301 18.9477 15.3565C22.4542 9.28297 23.0813 3.08019 20.3482 1.50223C17.6151 -0.0757246 12.5568 3.56868 9.05024 9.64224Z" stroke="#00A1FF"/>
</g>
<defs>
<clipPath id="clip0_2104_5191">
<rect width="26.6667" height="24" fill="white" transform="translate(0.666016 0.5)"/>
</clipPath>
</defs>
</svg>
