<svg width="25" height="24" viewBox="0 0 25 24" fill="none" xmlns="http://www.w3.org/2000/svg">
<g clip-path="url(#clip0_3820_5062)">
<path d="M4.62655 0H20.524C22.9342 0 24.883 1.94872 24.883 4.35897V19.641C24.883 22.0513 22.9342 24 20.524 24H4.62655C2.2163 24 0.267578 22.0513 0.267578 19.641V4.35897C0.267578 1.94872 2.2163 0 4.62655 0Z" fill="#470137"/>
<path d="M13.2114 6.30717L10.1345 11.3841L13.4165 16.7687C13.437 16.8097 13.4473 16.8508 13.437 16.8918C13.4268 16.9328 13.3857 16.902 13.3242 16.9123H10.9755C10.8114 16.9123 10.6986 16.902 10.6268 16.7995C10.4114 16.3687 10.1857 15.9482 9.97036 15.5174C9.75497 15.0969 9.51908 14.6661 9.27292 14.2251C9.02677 13.7841 8.78062 13.3431 8.53446 12.8918H8.51395C8.29856 13.3328 8.06267 13.7738 7.82677 14.2149C7.59087 14.6559 7.35498 15.0969 7.12933 15.5277C6.89344 15.9584 6.65754 16.3995 6.42164 16.82C6.38062 16.9226 6.29856 16.9328 6.18574 16.9328H3.92933C3.88831 16.9328 3.85754 16.9533 3.85754 16.902C3.84728 16.861 3.85754 16.82 3.87805 16.7892L7.0678 11.5584L3.9601 6.29691C3.92933 6.25588 3.91908 6.21486 3.93959 6.19435C3.9601 6.16358 4.00113 6.15332 4.04215 6.15332H6.37036C6.42164 6.15332 6.47292 6.16358 6.51395 6.17383C6.55498 6.19435 6.58574 6.22512 6.61651 6.26614C6.81139 6.70717 7.03703 7.14819 7.27292 7.58922C7.51908 8.03024 7.75498 8.46101 8.01139 8.89178C8.25754 9.32255 8.48318 9.75332 8.69856 10.1943H8.71908C8.93446 9.74306 9.1601 9.30204 9.38574 8.87127C9.61139 8.4405 9.84728 8.00973 10.0832 7.57896C10.3191 7.14819 10.5447 6.70717 10.7704 6.28665C10.7806 6.24563 10.8011 6.2046 10.8319 6.18409C10.8729 6.16358 10.9139 6.15332 10.9652 6.16358H13.1293C13.1806 6.15332 13.2319 6.18409 13.2422 6.23537C13.2524 6.24563 13.2319 6.28665 13.2114 6.30717Z" fill="#FF61F6"/>
<path d="M17.9492 17.128C17.1902 17.1383 16.4312 16.9844 15.7441 16.6665C15.0979 16.3691 14.5646 15.8767 14.1953 15.2716C13.8159 14.646 13.6312 13.8665 13.6312 12.9332C13.621 12.1742 13.8159 11.4255 14.1953 10.7691C14.5851 10.1024 15.1492 9.54854 15.8261 9.17931C16.5441 8.77931 17.4056 8.58444 18.421 8.58444C18.4723 8.58444 18.5441 8.58444 18.6364 8.59469C18.7287 8.60495 18.8312 8.60495 18.9543 8.61521V5.37418C18.9543 5.30239 18.9851 5.26136 19.0569 5.26136H21.1389C21.1902 5.2511 21.2312 5.29213 21.2415 5.33315C21.2415 5.34341 21.2415 5.35367 21.2415 5.35367V15.1178C21.2415 15.3024 21.2518 15.5075 21.262 15.7332C21.2825 15.9485 21.2928 16.1537 21.303 16.328C21.303 16.3998 21.2723 16.4614 21.2005 16.4921C20.6671 16.7178 20.103 16.8819 19.5287 16.9844C19.0056 17.0767 18.4825 17.128 17.9492 17.128ZM18.9543 15.0767V10.5639C18.862 10.5434 18.7697 10.5229 18.6774 10.5126C18.5646 10.5024 18.4518 10.4921 18.3389 10.4921C17.9389 10.4921 17.5389 10.5742 17.18 10.7588C16.8312 10.9332 16.5338 11.1896 16.3082 11.5178C16.0825 11.846 15.9697 12.287 15.9697 12.8203C15.9594 13.1793 16.021 13.5383 16.1441 13.8767C16.2466 14.1537 16.4005 14.3998 16.6056 14.6049C16.8005 14.7896 17.0364 14.9332 17.303 15.0152C17.58 15.1075 17.8671 15.1485 18.1543 15.1485C18.3082 15.1485 18.4518 15.1383 18.5851 15.128C18.7184 15.1383 18.8312 15.1178 18.9543 15.0767Z" fill="#FF61F6"/>
</g>
<defs>
<clipPath id="clip0_3820_5062">
<rect width="24.6154" height="24" fill="white" transform="translate(0.267578)"/>
</clipPath>
</defs>
</svg>
