<svg width="31" height="24" viewBox="0 0 31 24" fill="none" xmlns="http://www.w3.org/2000/svg">
<g clip-path="url(#clip0_3820_5086)">
<path d="M4.20522 3.13647C4.1484 1.50471 5.41975 0 7.13822 0H24.7472C26.4657 0 27.737 1.50471 27.6802 3.13647C27.6256 4.70394 27.6965 6.73441 28.2075 8.39C28.7202 10.0507 29.5846 11.1004 31.0005 11.2353V12.7647C29.5846 12.8996 28.7202 13.9493 28.2075 15.61C27.6965 17.2656 27.6256 19.2961 27.6802 20.8636C27.737 22.4953 26.4657 24 24.7472 24H7.13822C5.41975 24 4.1484 22.4953 4.20528 20.8636C4.25981 19.2961 4.18893 17.2656 3.67787 15.61C3.16528 13.9493 2.29869 12.8996 0.882812 12.7647V11.2353C2.29864 11.1004 3.16528 10.0507 3.67787 8.39C4.18893 6.73441 4.25981 4.70394 4.20522 3.13647Z" fill="url(#paint0_linear_3820_5086)"/>
<g filter="url(#filter0_d_3820_5086)">
<path d="M16.5948 18.3799C19.377 18.3799 21.0535 17.0177 21.0535 14.7708C21.0535 13.0724 19.8573 11.8428 18.0811 11.6482V11.5774C19.3861 11.3651 20.4101 10.1532 20.4101 8.79982C20.4101 6.87141 18.8877 5.61523 16.5677 5.61523H11.3477V18.3799H16.5948ZM13.3777 7.23406H16.0783C17.5464 7.23406 18.3801 7.88865 18.3801 9.074C18.3801 10.339 17.4105 11.0466 15.6524 11.0466H13.3777V7.23406ZM13.3777 16.7612V12.5594H16.0601C17.9814 12.5594 18.9782 13.267 18.9782 14.647C18.9782 16.0269 18.0086 16.7612 16.1779 16.7612H13.3777Z" fill="url(#paint1_linear_3820_5086)"/>
<path d="M16.5948 18.3799C19.377 18.3799 21.0535 17.0177 21.0535 14.7708C21.0535 13.0724 19.8573 11.8428 18.0811 11.6482V11.5774C19.3861 11.3651 20.4101 10.1532 20.4101 8.79982C20.4101 6.87141 18.8877 5.61523 16.5677 5.61523H11.3477V18.3799H16.5948ZM13.3777 7.23406H16.0783C17.5464 7.23406 18.3801 7.88865 18.3801 9.074C18.3801 10.339 17.4105 11.0466 15.6524 11.0466H13.3777V7.23406ZM13.3777 16.7612V12.5594H16.0601C17.9814 12.5594 18.9782 13.267 18.9782 14.647C18.9782 16.0269 18.0086 16.7612 16.1779 16.7612H13.3777Z" stroke="white"/>
</g>
</g>
<defs>
<filter id="filter0_d_3820_5086" x="-5.15234" y="-6.88477" width="42.7051" height="45.7646" filterUnits="userSpaceOnUse" color-interpolation-filters="sRGB">
<feFlood flood-opacity="0" result="BackgroundImageFix"/>
<feColorMatrix in="SourceAlpha" type="matrix" values="0 0 0 0 0 0 0 0 0 0 0 0 0 0 0 0 0 0 127 0" result="hardAlpha"/>
<feOffset dy="4"/>
<feGaussianBlur stdDeviation="8"/>
<feColorMatrix type="matrix" values="0 0 0 0 0 0 0 0 0 0 0 0 0 0 0 0 0 0 0.15 0"/>
<feBlend mode="normal" in2="BackgroundImageFix" result="effect1_dropShadow_3820_5086"/>
<feBlend mode="normal" in="SourceGraphic" in2="effect1_dropShadow_3820_5086" result="shape"/>
</filter>
<linearGradient id="paint0_linear_3820_5086" x1="5.35805" y1="0.635177" x2="31.6758" y2="21.5262" gradientUnits="userSpaceOnUse">
<stop stop-color="#9013FE"/>
<stop offset="1" stop-color="#6610F2"/>
</linearGradient>
<linearGradient id="paint1_linear_3820_5086" x1="12.2657" y1="6.45541" x2="18.1484" y2="16.4044" gradientUnits="userSpaceOnUse">
<stop stop-color="white"/>
<stop offset="1" stop-color="#F1E5FC"/>
</linearGradient>
<clipPath id="clip0_3820_5086">
<rect width="30.1176" height="24" fill="white" transform="translate(0.882812)"/>
</clipPath>
</defs>
</svg>
