<svg width="24" height="25" viewBox="0 0 24 25" fill="none" xmlns="http://www.w3.org/2000/svg">
<mask id="mask0_391_384" style="mask-type:luminance" maskUnits="userSpaceOnUse" x="0" y="0" width="24" height="25">
<path d="M24 0.5H0V24.5H24V0.5Z" fill="white"/>
</mask>
<g mask="url(#mask0_391_384)">
<path d="M18.5576 6.13755C15.9851 6.14992 14.0299 7.8513 13.2979 10.5625C12.0697 8.67255 11.1116 6.51067 10.5623 4.68555L7.85475 4.6983L7.89225 11.875C7.89385 12.2129 7.82889 12.5478 7.70107 12.8606C7.57325 13.1733 7.38507 13.4579 7.14729 13.6979C6.90951 13.938 6.62677 14.1288 6.31523 14.2596C6.00369 14.3904 5.66944 14.4585 5.33156 14.4601C4.64919 14.4633 3.99349 14.1954 3.5087 13.7151C3.26865 13.4774 3.07779 13.1946 2.94701 12.8831C2.81623 12.5715 2.7481 12.2373 2.7465 11.8994L2.709 4.72267L0 4.7358L0.0375 11.9129C0.048 14.8912 2.42775 17.251 5.34 17.236C8.25225 17.221 10.6106 14.8413 10.5975 11.8623L10.5919 10.6435C11.1379 11.7235 11.8204 12.871 12.5704 13.8835L10.9148 21.8125L13.6898 21.7998L14.8822 16.039C15.9683 16.7114 17.1885 17.1115 18.6097 17.1048C21.5887 17.0917 24.015 14.6437 24 11.5285C23.9865 8.5488 21.5366 6.12405 18.5576 6.13755ZM18.5963 14.3298C17.5133 14.3347 16.428 13.8663 15.5445 13.1249L15.81 12.0374V11.9692C16.008 10.8164 16.6073 8.85067 18.6383 8.84167C19.3559 8.84036 20.045 9.12311 20.5549 9.62816C21.0648 10.1332 21.3541 10.8195 21.3596 11.5372C21.2985 13.0945 20.0182 14.3197 18.5959 14.326L18.5963 14.3298Z" fill="#ADB0BB" fill-opacity="0.8"/>
</g>
</svg>
