<svg width="28" height="24" viewBox="0 0 28 24" fill="none" xmlns="http://www.w3.org/2000/svg">
<g clip-path="url(#clip0_3812_6556)">
<path d="M1.12377 19.1972L11.2676 1.95023C11.7956 1.05133 12.7781 0.5 13.8404 0.5C15.793 0.5 17.2175 2.31579 16.7018 4.15555L14 13.8517L14.9272 14.3851L17.5798 10.0164C18.1018 9.15346 19.0596 8.6321 20.0851 8.65008C21.7184 8.67405 22.9956 10.0344 22.8912 11.6225L22.4675 17.9508V17.9687C22.9587 17.6511 23.5482 17.4653 24.1807 17.4653C25.8877 17.4653 27.2754 18.8197 27.2754 20.4857C27.2754 22.1516 25.8877 23.506 24.1807 23.506C22.4737 23.506 21.0859 22.1516 21.0859 20.4857C21.0859 20.2477 21.0921 20.24 21.1105 20.1201V20.0961C21.1228 20.0182 21.1351 19.9463 21.1474 19.8684L21.7614 16.2069L21.0614 15.7514L17.193 22.0617C16.6526 22.9427 15.6763 23.488 14.6202 23.488C12.686 23.488 11.2614 21.7321 11.6974 19.8984L13.9939 10.2921L13.2877 10.0644L6.20795 22.0558C5.68602 22.9427 4.71585 23.488 3.66586 23.488C1.41236 23.488 8.96454e-05 21.1089 1.12377 19.1972Z" fill="#8965E6"/>
</g>
<defs>
<clipPath id="clip0_3812_6556">
<rect width="26.5385" height="23" fill="white" transform="matrix(-1 0 0 1 27.2695 0.5)"/>
</clipPath>
</defs>
</svg>
