<svg width="28" height="25" viewBox="0 0 28 25" fill="none" xmlns="http://www.w3.org/2000/svg">
<g clip-path="url(#clip0_2104_5004)">
<path d="M6.50237 1.28979L13.9729 0.5L21.4434 1.28979L27.227 9.05378L13.9729 24.4881L0.71875 9.05378L6.50237 1.28979Z" fill="#FDB300"/>
<path d="M6.08734 9.05371L13.9729 24.488L0.71875 9.05371H6.08734Z" fill="#EA6C00"/>
<path d="M21.858 9.05371L13.9724 24.488L27.2266 9.05371H21.858Z" fill="#EA6C00"/>
<path d="M6.08789 9.05371H21.859L13.9734 24.488L6.08789 9.05371Z" fill="#FDAD00"/>
<path d="M13.9734 0.5L6.5029 1.28978L6.08789 9.05377L13.9734 0.5Z" fill="#FDD231"/>
<path d="M13.9719 0.5L21.4424 1.28978L21.8574 9.05377L13.9719 0.5Z" fill="#FDD231"/>
<path d="M27.2266 9.05404L21.4429 1.29004L21.858 9.05404H27.2266Z" fill="#FDAD00"/>
<path d="M0.71875 9.05404L6.50235 1.29004L6.08733 9.05404H0.71875Z" fill="#FDAD00"/>
<path d="M13.9734 0.5L6.08789 9.05377H21.859L13.9734 0.5Z" fill="#FEEEB7"/>
</g>
<defs>
<clipPath id="clip0_2104_5004">
<rect width="26.5618" height="24" fill="white" transform="translate(0.71875 0.5)"/>
</clipPath>
</defs>
</svg>
