<svg width="18" height="25" viewBox="0 0 18 25" fill="none" xmlns="http://www.w3.org/2000/svg">
<g clip-path="url(#clip0_2104_5147)">
<path d="M5 24.5C7.208 24.5 9 22.708 9 20.5V16.5H5C2.792 16.5 1 18.292 1 20.5C1 22.708 2.792 24.5 5 24.5Z" fill="#0ACF83"/>
<path d="M1 12.5C1 10.292 2.792 8.5 5 8.5H9V16.5H5C2.792 16.5 1 14.708 1 12.5Z" fill="#A259FF"/>
<path d="M1 4.5C1 2.292 2.792 0.5 5 0.5H9V8.5H5C2.792 8.5 1 6.708 1 4.5Z" fill="#F24E1E"/>
<path d="M9 0.5H13C15.208 0.5 17 2.292 17 4.5C17 6.708 15.208 8.5 13 8.5H9V0.5Z" fill="#FF7262"/>
<path d="M17 12.5C17 14.708 15.208 16.5 13 16.5C10.792 16.5 9 14.708 9 12.5C9 10.292 10.792 8.5 13 8.5C15.208 8.5 17 10.292 17 12.5Z" fill="#1ABCFE"/>
</g>
<defs>
<clipPath id="clip0_2104_5147">
<rect width="16.0032" height="24" fill="white" transform="translate(0.998047 0.5)"/>
</clipPath>
</defs>
</svg>
