<svg width="25" height="24" viewBox="0 0 25 24" fill="none" xmlns="http://www.w3.org/2000/svg">
<g clip-path="url(#clip0_3820_5046)">
<path d="M4.74374 0H20.6412C23.0514 0 25.0002 1.94872 25.0002 4.35897V19.641C25.0002 22.0513 23.0514 24 20.6412 24H4.74374C2.33348 24 0.384766 22.0513 0.384766 19.641V4.35897C0.384766 1.94872 2.33348 0 4.74374 0Z" fill="#001E36"/>
<path d="M5.92383 16.8307V6.2769C5.92383 6.2051 5.9546 6.16408 6.02639 6.16408C6.20075 6.16408 6.36485 6.16408 6.60075 6.15382C6.8469 6.14356 7.10331 6.14356 7.38024 6.13331C7.65716 6.12305 7.9546 6.12305 8.27255 6.1128C8.59049 6.10254 8.89819 6.10254 9.20588 6.10254C10.0469 6.10254 10.7443 6.2051 11.3187 6.42049C11.8315 6.59485 12.3033 6.88203 12.6931 7.26151C13.0213 7.58972 13.2777 7.98972 13.4418 8.43074C13.5956 8.86151 13.6777 9.30254 13.6777 9.76408C13.6777 10.6461 13.4725 11.3743 13.0623 11.9487C12.652 12.5231 12.0777 12.9538 11.411 13.2C10.7136 13.4564 9.94434 13.5487 9.10332 13.5487C8.85716 13.5487 8.69306 13.5487 8.59049 13.5384C8.48793 13.5282 8.34434 13.5282 8.14947 13.5282V16.8205C8.15973 16.8923 8.10844 16.9538 8.03665 16.9641C8.02639 16.9641 8.01614 16.9641 7.99562 16.9641H6.04691C5.96485 16.9641 5.92383 16.9231 5.92383 16.8307ZM8.15973 8.14356V11.5897C8.30332 11.6 8.43665 11.6102 8.55973 11.6102H9.10332C9.50332 11.6102 9.90332 11.5487 10.2828 11.4256C10.611 11.3333 10.8982 11.1384 11.1238 10.882C11.3392 10.6256 11.4418 10.2769 11.4418 9.82562C11.452 9.50767 11.37 9.18972 11.2059 8.9128C11.0315 8.64613 10.7854 8.441 10.4879 8.32818C10.1084 8.17433 9.69819 8.1128 9.27767 8.12305C9.01101 8.12305 8.77511 8.12305 8.58024 8.13331C8.37511 8.12305 8.23152 8.13331 8.15973 8.14356Z" fill="#31A8FF"/>
<path d="M20.0773 10.9644C19.7696 10.8003 19.4414 10.6875 19.0927 10.6157C18.7132 10.5337 18.3337 10.4824 17.944 10.4824C17.7388 10.4721 17.5235 10.5029 17.3286 10.5542C17.1953 10.5849 17.0824 10.6567 17.0106 10.7593C16.9594 10.8414 16.9286 10.9439 16.9286 11.0362C16.9286 11.1285 16.9696 11.2208 17.0312 11.3029C17.1235 11.4157 17.2465 11.508 17.3799 11.5798C17.6158 11.7029 17.8619 11.8157 18.1081 11.9183C18.6619 12.1029 19.1953 12.3593 19.6876 12.667C20.026 12.8824 20.3029 13.1696 20.4978 13.5183C20.6619 13.8465 20.744 14.2055 20.7337 14.5747C20.744 15.0567 20.6004 15.5388 20.3337 15.9388C20.0465 16.349 19.6465 16.667 19.185 16.8516C18.6824 17.067 18.0671 17.1798 17.3286 17.1798C16.8568 17.1798 16.3953 17.1388 15.9337 17.0465C15.5747 16.9849 15.2158 16.8721 14.8876 16.7183C14.8158 16.6773 14.7645 16.6055 14.7747 16.5234V14.7388C14.7747 14.708 14.785 14.667 14.8158 14.6465C14.8465 14.626 14.8773 14.6362 14.9081 14.6567C15.3081 14.8926 15.7286 15.0567 16.1799 15.1593C16.5696 15.2619 16.9799 15.3132 17.3901 15.3132C17.7799 15.3132 18.0568 15.2619 18.2414 15.1696C18.4055 15.0978 18.5183 14.9234 18.5183 14.7388C18.5183 14.5952 18.4363 14.4619 18.2722 14.3285C18.1081 14.1952 17.7696 14.0414 17.2671 13.8465C16.744 13.6619 16.2619 13.4157 15.8106 13.108C15.4927 12.8824 15.226 12.5849 15.0312 12.2362C14.8671 11.908 14.785 11.549 14.7953 11.1901C14.7953 10.749 14.9183 10.3285 15.144 9.94905C15.4004 9.53879 15.7799 9.21059 16.2209 9.00546C16.7029 8.7593 17.3081 8.64648 18.0363 8.64648C18.4568 8.64648 18.8876 8.67725 19.3081 8.73879C19.6158 8.77982 19.9132 8.86187 20.1901 8.97469C20.2312 8.98495 20.2722 9.02597 20.2927 9.067C20.3029 9.10802 20.3132 9.14905 20.3132 9.19007V10.8619C20.3132 10.9029 20.2927 10.9439 20.2619 10.9644C20.1696 10.9849 20.1183 10.9849 20.0773 10.9644Z" fill="#31A8FF"/>
</g>
<defs>
<clipPath id="clip0_3820_5046">
<rect width="24.6154" height="24" fill="white" transform="translate(0.384766)"/>
</clipPath>
</defs>
</svg>
