<svg width="28" height="22" viewBox="0 0 28 22" fill="none" xmlns="http://www.w3.org/2000/svg">
<path d="M16.5876 21.2848C18.8087 21.2848 20.6473 19.469 20.2363 17.2863C19.9786 15.9178 19.5886 14.5761 19.0703 13.2818C18.0541 10.7446 16.5649 8.43909 14.6874 6.49718C12.8099 4.55524 10.581 3.01481 8.12799 1.96384C6.91692 1.44498 5.66294 1.05043 4.3841 0.78392C2.20968 0.330771 0.390625 2.17252 0.390625 4.39365V17.2631C0.390625 19.4842 2.19121 21.2848 4.41234 21.2848H16.5876Z" fill="#FFB900"/>
<g style="mix-blend-mode:multiply">
<path d="M11.4116 21.2848C9.19053 21.2848 7.35185 19.469 7.76292 17.2863C8.02065 15.9178 8.41065 14.5761 8.92896 13.2818C9.94509 10.7446 11.4343 8.43909 13.3118 6.49718C15.1893 4.55524 17.4182 3.01481 19.8712 1.96384C21.0823 1.44498 22.3363 1.05043 23.6151 0.78392C25.7896 0.330771 27.6086 2.17252 27.6086 4.39365V17.2631C27.6086 19.4842 25.808 21.2848 23.5869 21.2848H11.4116Z" fill="#FFB900"/>
</g>
</svg>
