<svg width="13" height="13" viewBox="0 0 13 13" fill="none" xmlns="http://www.w3.org/2000/svg">
<g clip-path="url(#clip0_2104_3029)">
<path d="M10.5246 6.38086L5.27456 12.0059C5.21892 12.0652 5.14548 12.1049 5.06533 12.1189C4.98517 12.1328 4.90264 12.1204 4.83019 12.0833C4.75775 12.0463 4.69932 11.9867 4.66372 11.9135C4.62811 11.8404 4.61728 11.7576 4.63284 11.6777L5.32002 8.24039L2.61862 7.22601C2.5606 7.20431 2.50887 7.16858 2.46803 7.122C2.42719 7.07542 2.39853 7.01946 2.3846 6.9591C2.37067 6.89875 2.37191 6.83588 2.38821 6.77612C2.40451 6.71636 2.43535 6.66157 2.47799 6.61664L7.72799 0.991637C7.78363 0.932263 7.85707 0.892596 7.93722 0.87862C8.01738 0.864645 8.09991 0.87712 8.17236 0.914163C8.2448 0.951206 8.30323 1.01081 8.33883 1.08397C8.37444 1.15714 8.38527 1.2399 8.36971 1.31976L7.68065 4.76086L10.3821 5.77382C10.4396 5.79567 10.491 5.83137 10.5315 5.87776C10.572 5.92415 10.6005 5.97981 10.6144 6.03981C10.6283 6.09982 10.6272 6.16232 10.6112 6.2218C10.5952 6.28128 10.5648 6.33591 10.5227 6.38086H10.5246Z" fill="#00CEB6"/>
</g>
<defs>
<clipPath id="clip0_2104_3029">
<rect width="12" height="12" fill="white" transform="translate(0.5 0.5)"/>
</clipPath>
</defs>
</svg>
