<svg width="44" height="15" viewBox="0 0 44 15" fill="none" xmlns="http://www.w3.org/2000/svg">
<g clip-path="url(#clip0_2104_4862)">
<path d="M18.7445 14.2282H15.2402L17.432 0.675781H20.936L18.7445 14.2282Z" fill="white"/>
<path d="M31.4492 1.00667C30.758 0.732453 29.6617 0.429688 28.3062 0.429688C24.8457 0.429688 22.4088 2.27502 22.3938 4.91329C22.3651 6.8598 24.1386 7.94094 25.465 8.58997C26.8207 9.25318 27.2816 9.68605 27.2816 10.2772C27.2678 11.1851 26.1861 11.6036 25.1772 11.6036C23.7781 11.6036 23.0285 11.3879 21.8893 10.8827L21.4279 10.6662L20.9375 13.7084C21.7594 14.0829 23.2736 14.4151 24.8457 14.4297C28.5225 14.4297 30.9163 12.6129 30.9446 9.80141C30.9586 8.25865 30.0222 7.07653 28.0032 6.11055C26.7776 5.49046 26.027 5.07234 26.027 4.43787C26.0414 3.86109 26.6619 3.27031 28.0454 3.27031C29.1846 3.24138 30.0216 3.51521 30.6557 3.78923L30.9726 3.93314L31.4492 1.00667Z" fill="white"/>
<path d="M36.1052 9.42703C36.3938 8.64846 37.5042 5.63519 37.5042 5.63519C37.4897 5.66412 37.7922 4.84225 37.9653 4.3377L38.2102 5.50546C38.2102 5.50546 38.8738 8.74945 39.0179 9.42703C38.4702 9.42703 36.7973 9.42703 36.1052 9.42703ZM40.4307 0.675781H37.7202C36.8843 0.675781 36.2493 0.920676 35.8887 1.80023L30.6836 14.228H34.3605C34.3605 14.228 34.9658 12.5553 35.0959 12.195C35.4993 12.195 39.0761 12.195 39.595 12.195C39.6956 12.6708 40.0132 14.228 40.0132 14.228H43.2577L40.4307 0.675781Z" fill="white"/>
<path d="M12.3137 0.675781L8.88193 9.9172L8.50692 8.04293C7.87246 5.88027 5.88264 3.53059 3.66211 2.36226L6.8055 14.2138H10.5111L16.0191 0.675781H12.3137Z" fill="white"/>
<path d="M5.69562 0.675781H0.0576784L0 0.949611C4.39795 2.07425 7.31062 4.78514 8.50731 8.04351L7.28169 1.81498C7.07991 0.949419 6.45982 0.704333 5.69562 0.675781Z" fill="white"/>
</g>
<defs>
<clipPath id="clip0_2104_4862">
<rect width="43.2582" height="14" fill="white" transform="translate(0 0.429688)"/>
</clipPath>
</defs>
</svg>
