<svg width="36" height="28" viewBox="0 0 36 28" fill="none" xmlns="http://www.w3.org/2000/svg">
<g clip-path="url(#clip0_3812_6581)" filter="url(#filter0_d_3812_6581)">
<path d="M4.95721 2.3697C4.95721 4.41317 5.65287 5.41317 8.43548 7.23926C11.5224 9.28274 11.9137 9.93491 11.9137 12.9784C11.9137 17.2393 13.2181 19.761 15.4355 19.761C16.9572 19.761 17.1311 19.1523 17.1311 13.0219L17.0876 6.28274L11.5224 3.02187C4.82678 -0.891173 4.95721 -0.891173 4.95721 2.3697ZM24.305 3.06535L18.9137 6.28274L18.8703 13.0219C18.8703 19.1523 19.0442 19.761 20.5659 19.761C22.7833 19.761 24.0877 17.2393 24.0877 12.9784C24.0877 9.93491 24.479 9.28274 27.5659 7.23926C30.3485 5.41317 31.0442 4.41317 31.0442 2.3697C31.0442 -0.891173 30.9137 -0.847695 24.305 3.06535Z" fill="#FF6692"/>
</g>
<defs>
<filter id="filter0_d_3812_6581" x="0.957031" y="0" width="34.0879" height="28" filterUnits="userSpaceOnUse" color-interpolation-filters="sRGB">
<feFlood flood-opacity="0" result="BackgroundImageFix"/>
<feColorMatrix in="SourceAlpha" type="matrix" values="0 0 0 0 0 0 0 0 0 0 0 0 0 0 0 0 0 0 127 0" result="hardAlpha"/>
<feOffset dy="4"/>
<feGaussianBlur stdDeviation="2"/>
<feComposite in2="hardAlpha" operator="out"/>
<feColorMatrix type="matrix" values="0 0 0 0 0 0 0 0 0 0 0 0 0 0 0 0 0 0 0.25 0"/>
<feBlend mode="normal" in2="BackgroundImageFix" result="effect1_dropShadow_3812_6581"/>
<feBlend mode="normal" in="SourceGraphic" in2="effect1_dropShadow_3812_6581" result="shape"/>
</filter>
<clipPath id="clip0_3812_6581">
<rect width="26.087" height="20" fill="white" transform="translate(4.95703)"/>
</clipPath>
</defs>
</svg>
