<svg width="24" height="24" viewBox="0 0 24 24" fill="none" xmlns="http://www.w3.org/2000/svg">
<g clip-path="url(#clip0_3820_5089)">
<path d="M24 0H0V24H24V0Z" fill="#F7DF1E"/>
<path d="M16.121 18.7497C16.6045 19.539 17.2334 20.1192 18.3458 20.1192C19.2803 20.1192 19.8772 19.6521 19.8772 19.0068C19.8772 18.2335 19.2639 17.9596 18.2353 17.5097L17.6715 17.2678C16.0441 16.5744 14.9629 15.7059 14.9629 13.8697C14.9629 12.1782 16.2517 10.8906 18.2658 10.8906C19.6997 10.8906 20.7306 11.3897 21.4734 12.6963L19.7172 13.824C19.3305 13.1306 18.9134 12.8575 18.2658 12.8575C17.6052 12.8575 17.1866 13.2765 17.1866 13.824C17.1866 14.5005 17.6056 14.7744 18.5732 15.1935L19.137 15.435C21.0532 16.2567 22.1351 17.0944 22.1351 18.9779C22.1351 21.0083 20.5401 22.1207 18.398 22.1207C16.3035 22.1207 14.9504 21.1226 14.2883 19.8144L16.121 18.7497ZM8.15417 18.9451C8.50845 19.5737 8.83074 20.1051 9.6056 20.1051C10.3465 20.1051 10.814 19.8152 10.814 18.688V11.0194H13.0692V18.7184C13.0692 21.0537 11.7001 22.1165 9.7016 22.1165C7.89588 22.1165 6.85017 21.1821 6.31836 20.0565L8.15417 18.9451Z" fill="black"/>
</g>
<defs>
<clipPath id="clip0_3820_5089">
<rect width="24" height="24" fill="white"/>
</clipPath>
</defs>
</svg>
