<svg width="24" height="25" viewBox="0 0 24 25" fill="none" xmlns="http://www.w3.org/2000/svg">
<path d="M20.6504 9.49975H2.65039C2.38517 9.49975 2.13082 9.39439 1.94328 9.20686C1.75575 9.01932 1.65039 8.76497 1.65039 8.49975V5.49975C1.65039 5.06975 1.92639 4.68775 2.33439 4.55175L11.3344 1.55175C11.5394 1.48275 11.7614 1.48275 11.9674 1.55175L20.9674 4.55175C21.1663 4.61808 21.3393 4.74534 21.4619 4.91549C21.5845 5.08563 21.6505 5.29004 21.6504 5.49975V8.49975C21.6504 8.76497 21.545 9.01932 21.3575 9.20686C21.17 9.39439 20.9156 9.49975 20.6504 9.49975ZM20.6504 22.4998H2.65039C2.38517 22.4998 2.13082 22.3944 1.94328 22.2069C1.75575 22.0193 1.65039 21.765 1.65039 21.4998V19.4998C1.65118 18.7043 1.96751 17.9417 2.52995 17.3793C3.09238 16.8169 3.85498 16.5005 4.65039 16.4998H18.6504C19.4458 16.5005 20.2084 16.8169 20.7708 17.3793C21.3333 17.9417 21.6496 18.7043 21.6504 19.4998V21.4998C21.6504 21.765 21.545 22.0193 21.3575 22.2069C21.17 22.3944 20.9156 22.4998 20.6504 22.4998Z" fill="#00A1FF"/>
<path opacity="0.1" d="M4 9.5V16.576C4.21 16.529 4.426 16.5 4.65 16.5H18.65C18.77 16.5 18.884 16.522 19 16.536V9.5H4Z" fill="#00A1FF"/>
<path opacity="0.5" d="M8 16.5V9.5H4V16.576C4.21 16.529 4.426 16.5 4.65 16.5H8ZM15 9.5V16.5H18.65C18.77 16.5 18.884 16.522 19 16.536V9.5H15Z" fill="#00A1FF"/>
</svg>
