<svg width="32" height="32" viewBox="0 0 32 32" fill="none" xmlns="http://www.w3.org/2000/svg">
<path d="M14.2773 23.1668C12.6368 24.1835 11.3704 23.6466 10.2919 22.2318C10.043 21.9053 9.71258 21.6411 9.41971 21.3482C7.96152 19.8899 7.91891 19.6616 8.81035 17.7206C10.2161 14.9175 11.5722 12.2109 12.9282 9.50428C14.2884 7.5265 15.7923 5.69602 17.9215 4.47703C20.9972 2.71618 24.2915 2.34561 27.7316 2.91325C28.4918 3.03868 28.9847 3.53365 29.1035 4.29312C30.032 10.2299 28.1912 15.4834 22.5813 18.9718C21.9376 19.3459 21.4054 19.7029 20.8358 19.9837C18.6561 21.058 16.4645 22.1078 14.2773 23.1668ZM20.9647 8.14307C20.4012 9.2318 20.5031 10.2026 21.2513 10.874C21.9669 11.5161 23.0894 11.5827 23.8677 11.0292C24.8352 10.341 25.0358 9.00742 24.3101 8.08757C23.4871 7.04441 22.1346 7.02541 20.9647 8.14307Z" fill="#00CEB6"/>
<path opacity="0.5" fill-rule="evenodd" clip-rule="evenodd" d="M8.81286 17.658C10.2162 14.9171 11.5723 12.2105 12.8513 9.49768C12.3631 9.49549 11.885 9.49717 11.4132 9.49883C10.5769 9.50177 9.76086 9.50464 8.9453 9.48572C7.44378 9.4509 6.31853 10.0909 5.54212 11.3372C4.64829 12.772 3.77304 14.2197 2.93649 15.6884C2.3006 16.8049 2.82446 17.6761 4.1042 17.6882C5.65787 17.7029 7.21179 17.692 8.81286 17.658ZM19.2402 20.7661C17.5884 21.5747 15.9328 22.385 14.283 23.2466C14.2855 23.802 14.2844 24.3475 14.2833 24.8866C14.2813 25.8802 14.2794 26.8519 14.2998 27.8232C14.3272 29.134 15.3014 29.7643 16.3539 29.1468C17.8123 28.2912 19.2577 27.4101 20.6731 26.4853C21.7093 25.8084 22.4439 24.8863 22.4866 23.5727C22.536 22.0505 22.5646 20.5276 22.5447 19.0143C22.2921 19.1521 22.0526 19.2944 21.8178 19.4337C21.4884 19.6293 21.1686 19.8193 20.8359 19.9832C20.3046 20.2451 19.7726 20.5055 19.2402 20.7661Z" fill="#00CEB6"/>
</svg>
